<svg width="1010" height="840" viewBox="0 0 1010 840" fill="none" xmlns="http://www.w3.org/2000/svg">
<g clip-path="url(#clip0_2_81)">
<path opacity="0.1" d="M586.55 111.4C521.83 109.15 460.19 88.26 401.33 65.4C342.47 42.54 284.17 17.21 221 5.10001C180.37 -2.68999 133.9 -3.78999 101.17 17.99C69.66 38.99 59.48 75.14 54.01 108.72C49.89 133.98 47.47 160.57 58.75 184.21C66.59 200.63 80.49 214.43 90.11 230.16C123.58 284.88 99.92 352.36 63.66 405.79C46.66 430.86 26.91 454.79 13.78 481.45C0.649959 508.11 -5.42004 538.7 6.06996 565.92C17.45 592.92 44.58 613.16 73.97 627.41C133.66 656.36 203.97 664.64 272.58 669.33C424.41 679.72 577.04 675.22 729.27 670.72C785.61 669.05 842.19 667.36 897.61 658.65C928.39 653.81 960.16 646.14 982.51 627.6C1010.87 604.07 1017.9 564.23 998.89 534.72C967.01 485.23 878.89 472.94 856.58 419.83C844.32 390.59 856.91 358.03 874.74 330.91C912.98 272.75 977.07 221.72 980.44 155.24C982.76 109.58 951.95 63.85 904.31 42.24C854.38 19.6 785.13 22.44 748.31 59.93C710.36 98.53 643.7 113.38 586.55 111.4Z" fill="#9838D3"/>
<path opacity="0.1" d="M483.49 822.11C651.368 822.11 787.46 803.7 787.46 780.99C787.46 758.28 651.368 739.87 483.49 739.87C315.612 739.87 179.52 758.28 179.52 780.99C179.52 803.7 315.612 822.11 483.49 822.11Z" fill="#38D39F"/>
<path d="M354.29 234.34C354.29 234.34 382.01 198.22 397.13 201.02C397.13 201.02 380.33 233.22 354.29 238.02V234.34Z" fill="#38D39F"/>
<path d="M368.26 189.82C368.26 189.82 392.77 162.12 406 162.19C406 162.19 386.66 199.19 367.26 198.85L368.26 189.82Z" fill="#38D39F"/>
<path d="M649.37 289.82H645.09C643.825 289.82 642.8 290.845 642.8 292.11V360.55C642.8 361.815 643.825 362.84 645.09 362.84H649.37C650.635 362.84 651.66 361.815 651.66 360.55V292.11C651.66 290.845 650.635 289.82 649.37 289.82Z" fill="#3A3768"/>
<path d="M351.05 232.61H350.66C349.395 232.61 348.37 233.635 348.37 234.9V254.36C348.37 255.625 349.395 256.65 350.66 256.65H351.05C352.315 256.65 353.34 255.625 353.34 254.36V234.9C353.34 233.635 352.315 232.61 351.05 232.61Z" fill="#3A3768"/>
<path d="M351.5 276.63H350.48C349.215 276.63 348.19 277.655 348.19 278.92V316.18C348.19 317.445 349.215 318.47 350.48 318.47H351.5C352.765 318.47 353.79 317.445 353.79 316.18V278.92C353.79 277.655 352.765 276.63 351.5 276.63Z" fill="#3A3768"/>
<path d="M351.32 333.11H350.57C349.305 333.11 348.28 334.135 348.28 335.4V373.02C348.28 374.285 349.305 375.31 350.57 375.31H351.32C352.585 375.31 353.61 374.285 353.61 373.02V335.4C353.61 334.135 352.585 333.11 351.32 333.11Z" fill="#3A3768"/>
<path d="M608.59 153.17H390.17C368.636 153.17 351.18 170.626 351.18 192.16V716.57C351.18 738.104 368.636 755.56 390.17 755.56H608.59C630.124 755.56 647.58 738.104 647.58 716.57V192.16C647.58 170.626 630.124 153.17 608.59 153.17Z" fill="#3A3768"/>
<path d="M605.77 168.82H571.77V172.91C571.77 175.456 571.268 177.977 570.294 180.329C569.319 182.681 567.891 184.818 566.09 186.617C564.29 188.417 562.152 189.844 559.799 190.818C557.447 191.791 554.926 192.291 552.38 192.29H444.25C441.704 192.291 439.183 191.791 436.831 190.818C434.478 189.844 432.34 188.417 430.54 186.617C428.739 184.818 427.311 182.681 426.336 180.329C425.362 177.977 424.86 175.456 424.86 172.91V168.82H393.03C386.787 168.82 380.799 171.3 376.385 175.715C371.97 180.129 369.49 186.117 369.49 192.36V716.33C369.49 722.573 371.97 728.561 376.385 732.975C380.799 737.39 386.787 739.87 393.03 739.87H605.77C612.013 739.87 618.001 737.39 622.415 732.975C626.83 728.561 629.31 722.573 629.31 716.33V192.4C629.315 189.305 628.71 186.24 627.53 183.379C626.349 180.519 624.616 177.919 622.429 175.729C620.243 173.539 617.646 171.801 614.788 170.616C611.929 169.43 608.865 168.82 605.77 168.82V168.82Z" fill="#A138D3"/>
<path d="M508.31 171.16H474.66C472.523 171.16 470.79 172.893 470.79 175.03V175.69C470.79 177.827 472.523 179.56 474.66 179.56H508.31C510.447 179.56 512.18 177.827 512.18 175.69V175.03C512.18 172.893 510.447 171.16 508.31 171.16Z" fill="#E6E8EC"/>
<path d="M523.21 180.13C525.844 180.13 527.98 177.994 527.98 175.36C527.98 172.726 525.844 170.59 523.21 170.59C520.576 170.59 518.44 172.726 518.44 175.36C518.44 177.994 520.576 180.13 523.21 180.13Z" fill="#E6E8EC"/>
<path d="M662.965 325.647C662.965 325.647 747.073 319.233 729.225 262.13C729.225 262.13 729.788 251.525 719.753 248.127C719.753 248.127 720.198 252.477 711.585 252.155C708.522 252.07 705.46 252.341 702.46 252.963C698.411 253.792 694.742 255.915 692.005 259.011V259.011C692.005 259.011 669.884 271.918 666.028 311.489C666.028 311.489 660.429 320.777 660.991 322.89L674.244 314.945C674.244 314.945 668.036 305.45 670.702 296.485C670.702 296.485 673.659 314.651 676.309 313.884C676.843 313.73 683.138 309.364 683.138 309.364C683.138 309.364 672.439 292.815 676.916 279.099C676.916 279.099 677.539 301.219 685.549 307.731L694.662 300.586C694.662 300.586 682.485 283.644 686.998 267.833C686.998 267.833 688.451 290.93 696.559 298.892L704.574 290.656C704.574 290.656 693.019 273.901 696.86 260.777C696.86 260.777 701.235 287.288 706.276 288.646C706.276 288.646 713.181 280.633 713.991 277.635C713.991 277.635 705.975 265.411 708.892 257.985C708.892 257.985 713.694 275.394 715.649 275.227C715.649 275.227 721.863 262.403 721.569 254.227C721.569 254.227 722.876 266.251 717.694 276.077C717.694 276.077 725.085 273.74 728.83 268.23C728.83 268.23 728.751 276.699 716.151 279.175C716.151 279.175 710.905 288.98 709.254 289.751C709.254 289.751 722.021 289.079 729.213 284.63C729.213 284.63 723.552 293.391 707.201 292.001L699.328 300.46C699.328 300.46 716.264 300.447 722.973 296.973C722.973 296.973 715.811 305.021 697.166 302.432L688.308 309.522C688.308 309.522 702.904 310.628 711.198 308.4C711.198 308.4 702.941 314.429 685.69 311.486L679.181 315.539C679.181 315.539 689.844 316.155 692.93 316.065C696.016 315.974 696.289 316.785 696.289 316.785C689.862 318.784 683.005 318.96 676.484 317.292C676.484 317.292 662.591 324.76 662.965 325.647Z" fill="#4C1A73"/>
<path d="M628.053 128.368C628.053 128.368 664.987 137.596 665.517 110.574C665.517 110.574 667.257 106.108 663.453 103.22C663.453 103.22 663.017 105.173 659.369 103.79C658.07 103.314 656.719 102.993 655.345 102.835C653.489 102.614 651.612 103.006 649.999 103.953V103.953C649.999 103.953 638.67 106.333 631.371 122.752C631.371 122.752 627.653 125.933 627.591 126.918L634.405 125.404C634.405 125.404 633.103 120.45 635.5 116.982C635.5 116.982 634.181 125.189 635.425 125.228C635.671 125.274 639.004 124.259 639.004 124.259C639.004 124.259 636.77 115.632 640.647 110.395C640.647 110.395 637.761 119.968 640.27 123.905L645.206 122.101C645.206 122.101 642.4 113.103 646.588 106.967C646.588 106.967 643.916 117.079 646.257 121.646L650.865 119.252C650.865 119.252 648.303 110.421 651.816 105.34C651.816 105.34 649.921 117.336 651.885 118.638C651.885 118.638 655.984 116.19 656.764 115.013C656.764 115.013 655.074 108.593 657.375 105.859C657.375 105.859 656.951 114.01 657.848 114.218C657.848 114.218 662.341 109.605 663.373 106.095C662.575 109.398 660.927 112.436 658.594 114.907C660.691 114.902 662.74 114.284 664.491 113.129C664.491 113.129 663.244 116.752 657.492 116.013C657.492 116.013 653.796 119.463 653.023 119.573C653.023 119.573 658.596 121.103 662.312 120.22C662.312 120.22 658.638 123.165 651.829 120.245L647.291 122.755C647.291 122.755 654.568 125.132 657.927 124.63C657.927 124.63 653.71 127.057 646.082 123.292L641.274 125.069C641.274 125.069 647.378 127.624 651.255 127.839C651.255 127.839 646.852 129.245 639.875 125.53L636.52 126.338C636.52 126.338 641.008 128.123 642.347 128.525C643.686 128.928 643.685 129.314 643.685 129.314C640.642 129.254 637.677 128.348 635.12 126.697C635.12 126.697 628.012 127.933 628.053 128.368Z" fill="#722597"/>
<path d="M231.019 486.709C231.019 486.709 267.855 496.317 268.664 469.302C268.664 469.302 270.449 464.854 266.675 461.927C266.675 461.927 266.219 463.876 262.585 462.455C261.292 461.965 259.945 461.631 258.572 461.459C256.718 461.218 254.837 461.591 253.215 462.521V462.521C253.215 462.521 241.861 464.784 234.394 481.127C234.394 481.127 230.644 484.27 230.572 485.255L237.401 483.811C237.401 483.811 236.15 478.844 238.583 475.4C238.583 475.4 237.179 483.594 238.422 483.645C238.668 483.694 242.011 482.713 242.011 482.713C242.011 482.713 239.866 474.064 243.797 468.867C243.797 468.867 240.812 478.409 243.281 482.373L248.235 480.619C248.235 480.619 245.522 471.592 249.773 465.5C249.773 465.5 246.997 475.584 249.291 480.175L253.923 477.828C253.923 477.828 251.452 468.972 255.017 463.927C255.017 463.927 252.999 475.902 254.949 477.225C254.949 477.225 259.074 474.819 259.865 473.65C259.865 473.65 258.241 467.213 260.57 464.503C260.57 464.503 260.063 472.649 260.957 472.867C260.957 472.867 265.498 468.3 266.566 464.8C265.734 468.095 264.055 471.116 261.697 473.563C263.793 473.579 265.849 472.983 267.611 471.846C267.611 471.846 266.328 475.456 260.583 474.658C260.583 474.658 256.852 478.07 256.077 478.172C256.077 478.172 261.635 479.759 265.359 478.914C265.359 478.914 261.656 481.822 254.877 478.832L250.313 481.294C250.313 481.294 257.566 483.746 260.93 483.279C260.93 483.279 256.688 485.662 249.099 481.819L244.272 483.547C244.272 483.547 250.351 486.164 254.225 486.419C254.225 486.419 249.807 487.779 242.869 483.993L239.506 484.767C239.506 484.767 243.976 486.597 245.311 487.014C246.645 487.43 246.64 487.816 246.64 487.816C243.598 487.725 240.642 486.788 238.102 485.111C238.102 485.111 230.982 486.274 231.019 486.709Z" fill="#317660"/>
<path d="M249.957 607.094C249.957 607.094 287.4 613.971 286.223 586.97C286.223 586.97 287.677 582.402 283.698 579.761C283.698 579.761 283.386 581.738 279.658 580.587C278.332 580.194 276.964 579.96 275.582 579.888C273.716 579.785 271.867 580.295 270.318 581.341V581.341C270.318 581.341 259.161 584.432 252.914 601.279C252.914 601.279 249.405 604.689 249.405 605.677L256.11 603.735C256.11 603.735 254.497 598.874 256.671 595.26C256.671 595.26 255.872 603.535 257.116 603.495C257.364 603.525 260.627 602.302 260.627 602.302C260.627 602.302 257.852 593.833 261.391 588.361C261.391 588.361 259.115 598.097 261.868 601.869L266.68 599.756C266.68 599.756 263.311 590.953 267.103 584.566C267.103 584.566 265.075 594.825 267.7 599.236L272.148 596.555C272.148 596.555 269.033 587.904 272.218 582.611C272.218 582.611 271.084 594.703 273.127 595.879C273.127 595.879 277.063 593.176 277.767 591.952C277.767 591.952 275.675 585.652 277.799 582.778C277.799 582.778 277.89 590.94 278.799 591.091C278.799 591.091 282.992 586.203 283.8 582.634C283.212 585.982 281.759 589.117 279.587 591.731C281.679 591.593 283.686 590.847 285.36 589.585C285.36 589.585 284.345 593.279 278.557 592.905C278.557 592.905 275.086 596.581 274.321 596.74C274.321 596.74 279.981 597.914 283.633 596.798C283.633 596.798 280.153 599.97 273.173 597.486L268.802 600.277C268.802 600.277 276.215 602.189 279.536 601.477C279.536 601.477 275.48 604.165 267.629 600.89L262.943 602.967C262.943 602.967 269.197 605.131 273.079 605.101C273.079 605.101 268.774 606.782 261.577 603.516L258.279 604.533C258.279 604.533 262.871 606.031 264.233 606.348C265.594 606.666 265.618 607.051 265.618 607.051C262.578 607.183 259.56 606.466 256.905 604.98C256.905 604.98 249.889 606.663 249.957 607.094Z" fill="#88AEA2"/>
<path d="M284.271 775.305C284.271 775.305 316.476 795.605 325.418 770.1C325.418 770.1 328.465 766.4 325.752 762.468C325.752 762.468 324.728 764.188 321.695 761.734C320.61 760.877 319.427 760.15 318.171 759.571C316.477 758.781 314.57 758.568 312.743 758.963V758.963C312.743 758.963 301.237 757.687 289.176 771.006C289.176 771.006 284.651 772.867 284.285 773.784L291.231 774.473C291.231 774.473 291.54 769.36 294.901 766.814C294.901 766.814 291.085 774.199 292.254 774.624C292.473 774.744 295.957 774.821 295.957 774.821C295.957 774.821 296.528 765.928 301.847 762.163C301.847 762.163 296.116 770.356 297.27 774.88L302.522 774.707C302.522 774.707 302.667 765.283 308.561 760.762C308.561 760.762 302.865 769.533 303.663 774.604L308.788 773.768C308.788 773.768 309.112 764.578 314.036 760.848C314.036 760.848 308.49 771.653 309.949 773.504C309.949 773.504 314.608 772.457 315.716 771.582C315.716 771.582 316.115 764.956 319.154 763.077C319.154 763.077 316.207 770.688 316.994 771.166C316.994 771.166 322.703 768.187 324.78 765.174C322.989 768.063 320.476 770.434 317.488 772.054C319.481 772.703 321.621 772.756 323.645 772.206C323.645 772.206 321.329 775.259 316.095 772.761C316.095 772.761 311.507 774.884 310.738 774.747C310.738 774.747 315.555 777.94 319.361 778.262C319.361 778.262 314.951 779.913 309.394 775.013L304.299 775.98C304.299 775.98 310.471 780.51 313.818 781.082C313.818 781.082 309.054 782.071 302.983 776.112L297.86 776.3C297.86 776.3 302.862 780.632 306.477 782.047C306.477 782.047 301.856 782.008 296.388 776.301L292.948 776.02C292.948 776.02 296.655 779.117 297.801 779.918C298.947 780.719 298.826 781.085 298.826 781.085C295.954 780.078 293.419 778.291 291.506 775.924C291.506 775.924 284.368 774.879 284.271 775.305Z" fill="#338A80"/>
<path d="M88.6413 442.084C88.6413 442.084 125.151 452.869 126.825 425.893C126.825 425.893 128.753 421.504 125.074 418.458C125.074 418.458 124.556 420.391 120.97 418.855C119.692 418.324 118.357 417.946 116.991 417.73C115.145 417.43 113.253 417.743 111.602 418.62V418.62C111.602 418.62 100.182 420.518 92.1938 436.613C92.1938 436.613 88.345 439.634 88.2413 440.616L95.1134 439.392C95.1134 439.392 94.0217 434.387 96.5642 431.023C96.5642 431.023 94.8983 439.167 96.1395 439.259C96.3831 439.315 99.7562 438.442 99.7562 438.442C99.7562 438.442 97.8897 429.729 101.986 424.66C101.986 424.66 98.6959 434.102 101.036 438.143L106.044 436.549C106.044 436.549 103.622 427.44 108.066 421.488C108.066 421.488 104.968 431.477 107.113 436.139L111.819 433.942C111.819 433.942 109.633 425.011 113.358 420.083C113.358 420.083 110.956 431.988 112.864 433.373C112.864 433.373 117.063 431.099 117.892 429.957C117.892 429.957 116.475 423.471 118.89 420.837C118.89 420.837 118.121 428.963 119.009 429.209C119.009 429.209 123.693 424.79 124.873 421.327C123.935 424.593 122.161 427.558 119.725 429.929C121.82 430.012 123.894 429.482 125.692 428.402C125.692 428.402 124.293 431.969 118.577 430.987C118.577 430.987 114.738 434.278 113.961 434.355C113.961 434.355 119.465 436.119 123.214 435.394C123.214 435.394 119.419 438.182 112.74 434.976L108.099 437.291C108.099 437.291 115.27 439.974 118.647 439.615C118.647 439.615 114.331 441.861 106.869 437.776L101.99 439.348C101.99 439.348 107.981 442.159 111.844 442.538C111.844 442.538 107.386 443.756 100.573 439.75L97.1863 440.414C97.1863 440.414 101.595 442.388 102.916 442.847C104.236 443.306 104.219 443.692 104.219 443.692C101.182 443.502 98.2571 442.471 95.7726 440.714C95.7726 440.714 88.6189 441.648 88.6413 442.084Z" fill="#2D8C6E"/>
<path opacity="0.1" d="M602.86 226.18H395.91V665.42H602.86V226.18Z" fill="black"/>
<path d="M596.52 788.04C596.52 788.04 591.64 776.68 589.46 771.44C588.23 768.44 586.15 767.94 584.56 768.01L584.65 767.01L585.04 762.28L585.12 761.28C588.89 760.49 592.12 759.87 592.12 759.87L589.77 638.55C589.77 638.55 588.77 637.27 586.35 629.55C585.15 625.7 579.35 620.97 573.93 617.2C573.08 616.61 572.25 616.05 571.43 615.51C573.403 613.857 575.477 612.327 577.64 610.93C580.72 609.14 581.74 598.93 581.74 598.93L581.23 599.93C581.74 598.93 581.23 572.86 581.23 572.86L579.43 545.8C579.43 545.8 578.15 513.63 568.15 505.2C558.15 496.77 545.52 493.82 545.52 493.82L538.52 492.02L525.62 488.71C525.26 488.12 524.91 487.5 524.62 486.85C524.49 486.6 524.37 486.34 524.25 486.08C528.191 483.29 531.406 479.595 533.624 475.306C535.843 471.017 537 466.259 537 461.43C537.002 459.809 536.872 458.19 536.61 456.59C536.61 456.29 536.5 455.98 536.44 455.68C537.5 454.954 538.503 454.149 539.44 453.27C540.968 452.053 542.216 450.522 543.1 448.78C543.239 448.439 543.352 448.088 543.44 447.73C543.44 447.63 543.44 447.53 543.5 447.42C543.56 447.31 543.59 446.89 543.62 446.62C543.62 446.52 543.62 446.42 543.62 446.32C543.62 446.03 543.62 445.73 543.62 445.44C543.62 445.37 543.62 445.3 543.62 445.22C543.62 444.89 543.57 444.56 543.52 444.22C543.525 444.2 543.525 444.18 543.52 444.16V444.16C543.337 442.999 543.035 441.86 542.62 440.76C541.62 438.18 540.32 435.76 539.85 433.01C539.27 429.76 539.94 426.21 538.39 423.29C537.746 422.186 536.867 421.238 535.814 420.513C534.761 419.789 533.561 419.306 532.3 419.1C529.762 418.709 527.165 419.006 524.78 419.96C523.614 420.515 522.357 420.853 521.07 420.96C520.134 420.906 519.216 420.682 518.36 420.3C515.391 419.135 512.571 417.621 509.96 415.79C508.081 414.307 506.073 412.996 503.96 411.87C502.899 411.316 501.728 411.004 500.531 410.955C499.335 410.907 498.143 411.124 497.04 411.59C493.34 413.47 492.64 418.71 489.2 421.02C486.83 422.62 483.74 422.46 480.88 422.56C478.02 422.66 474.78 423.37 473.37 425.85C472.37 427.57 472.61 429.62 472.8 431.63L472.86 432.31C472.86 432.55 472.86 432.8 472.92 433.04C473.078 435.611 472.693 438.187 471.79 440.6C470.41 444.26 467.79 447.87 467.88 451.6C467.888 452.194 467.965 452.784 468.11 453.36C468.188 453.648 468.282 453.932 468.39 454.21V454.21C468.941 455.446 469.558 456.651 470.24 457.82L470.33 457.98C470.4 458.12 470.47 458.26 470.53 458.4C470.59 458.54 470.71 458.78 470.78 458.97C470.85 459.16 470.86 459.16 470.89 459.25C470.92 459.34 471.02 459.62 471.07 459.81C471.235 460.375 471.306 460.962 471.28 461.55C471.163 462.308 471.099 463.073 471.09 463.84C471.093 464.224 471.228 464.595 471.472 464.892C471.716 465.188 472.054 465.392 472.43 465.47C472.842 465.46 473.244 465.335 473.59 465.11C474.487 464.599 475.34 464.013 476.14 463.36C476.14 463.68 476.14 464 476.2 464.36C476.896 471.517 480.119 478.193 485.29 483.19C485.29 483.5 485.29 483.82 485.22 484.19C485.15 484.56 485.17 484.91 485.15 485.28L473.95 488.8C473.95 488.8 474.01 489 474.13 489.34L472.95 489.81C467.14 492.16 460.67 495.08 457.05 497.73C455.45 498.89 453.99 499.84 452.68 500.63C447.924 503.541 444.277 507.958 442.32 513.18L442.17 513.56C441.17 515.85 436.27 531.43 436.27 531.43C436.27 531.43 432.68 540.11 432.16 545.73C432.16 545.73 426.26 564.36 427.8 576.62C427.8 576.62 423.18 594.24 424.98 597.04C424.98 597.04 423.14 604.62 431.22 612.25C430.63 612.61 429.99 613 429.32 613.43C423.06 617.37 414.03 623.76 412.49 628.69C410.1 636.36 409.07 637.69 409.07 637.69L406.65 758.82C406.65 758.82 409.88 759.44 413.65 760.22L413.73 761.22L414.12 765.94L414.21 766.94C412.62 766.87 410.54 767.42 409.31 770.38C407.12 775.61 402.31 786.96 402.31 786.96C402.31 786.96 391.54 796.96 398.07 806.24C398.358 806.664 398.693 807.053 399.07 807.4C403.76 811.66 413.76 808.93 420.87 806.15C424.483 804.608 427.598 802.095 429.87 798.89C430.156 798.515 430.518 798.203 430.931 797.974C431.344 797.745 431.8 797.604 432.27 797.56C433.9 797.297 435.438 796.626 436.74 795.61C437.524 795.038 438.157 794.284 438.586 793.413C439.014 792.542 439.225 791.58 439.2 790.61C439.195 790.56 439.195 790.51 439.2 790.46L438.57 776.23C438.57 776.23 437.8 766.29 435.35 766.93L434.72 767.08L434.55 766.08L434.22 764.15L434.05 763.15H435.41C435.41 763.15 435.75 751.91 439.86 743.07C443.97 734.23 446.67 662.82 446.67 662.82C446.67 662.82 497.54 663.65 499.24 658.88C500.24 658.88 501.33 658.88 502.37 658.81C504.08 663.58 552.09 663.81 552.09 663.81C552.09 663.81 554.82 735.3 558.92 744.15C559.785 746.046 560.504 748.005 561.07 750.01V750.01C562.36 754.647 563.135 759.413 563.38 764.22H564.74L564.56 765.22L564.23 767.14L564.06 768.14L563.41 767.99C560.98 767.36 560.21 777.3 560.21 777.3L559.56 791.62C559.509 792.586 559.7 793.549 560.116 794.422C560.532 795.295 561.159 796.05 561.94 796.62C563.264 797.659 564.829 798.347 566.49 798.62C566.961 798.658 567.418 798.795 567.831 799.023C568.245 799.25 568.606 799.563 568.89 799.94C571.164 803.143 574.278 805.655 577.89 807.2C585.57 810.2 596.61 813.13 600.71 807.3C607.29 798 596.52 788.04 596.52 788.04ZM467.22 609.7H467.34H467.22ZM547.57 568.82C547.57 568.82 548.86 573.67 551.16 576.22C553.46 578.77 552.32 594.61 552.32 594.61C551.415 594.667 550.518 594.811 549.64 595.04C547.87 584.51 546.24 572.82 547.57 568.82Z" fill="url(#paint0_linear_2_81)"/>
<path d="M436.96 768.43L416.85 770.43L416.29 763.7L415.9 759.07L415.35 752.3L434.35 753.3L435.86 761.99L436.18 763.88H436.19L436.96 768.43Z" fill="#8E6F7F"/>
<path d="M583.41 753.31L582.86 760.07L582.48 764.7L581.91 771.43L561.79 769.43L562.59 764.88L562.9 763L564.41 754.31L583.41 753.31Z" fill="#8E6F7F"/>
<path d="M562.1 655.92L502.3 658.73C499.58 658.863 496.86 658.863 494.14 658.73L437.01 655.93V610.67H562.1V655.92Z" fill="#5F5570"/>
<path opacity="0.1" d="M562.1 655.92L502.3 658.73C499.58 658.863 496.86 658.863 494.14 658.73L437.01 655.93V610.67H562.1V655.92Z" fill="black"/>
<path d="M485.52 488.73C485.52 488.73 465.6 495.42 458.1 500.92C456.54 502.06 455.1 503 453.84 503.77C449.208 506.626 445.663 510.948 443.77 516.05C443.72 516.19 443.67 516.31 443.62 516.42C442.62 518.67 437.87 533.92 437.87 533.92C437.87 533.92 434.37 542.42 433.87 547.92C433.37 553.42 462.37 568.17 462.37 568.17C462.37 568.17 448.37 598.67 454.62 606.42C460.87 614.17 552.12 617.92 550.12 606.42C548.12 594.92 544.62 575.92 546.37 570.67L577.37 548.17C577.37 548.17 576.12 516.67 566.37 508.42C556.62 500.17 544.37 497.17 544.37 497.17L524.96 492.17C524.96 492.17 518.12 509.17 510.62 511.42C503.12 513.67 486.69 503.28 485.52 488.73Z" fill="#EAEAF2"/>
<path opacity="0.1" d="M513.5 517.36C513.5 517.36 505.04 524.42 500.6 517.36C500.6 517.36 496.6 529.3 500.6 533.3L500.45 534.11L499.74 537.67L490.48 614.67L498.1 627.82L511.97 610.42L510.85 538.42L510.35 534.29L510.23 533.29H512.6C512.6 533.29 518.89 522.42 513.5 517.36Z" fill="black"/>
<path opacity="0.1" d="M515.5 517.36C515.5 517.36 507.04 524.42 502.6 517.36C502.6 517.36 498.6 529.3 502.6 533.3L502.45 534.11L501.74 537.67L492.48 614.67L500.1 627.82L513.97 610.42L512.85 538.42L512.35 534.29L512.23 533.29H514.6C514.6 533.29 520.89 522.42 515.5 517.36Z" fill="black"/>
<path d="M512.97 609.43L499.1 626.8L491.46 613.72L500.73 536.68L501.44 533.12L501.6 532.3L502.85 529.06L511.23 532.3L511.35 533.3L511.85 537.43L512.97 609.43Z" fill="#9215DE"/>
<path opacity="0.1" d="M435.86 761.98C431.545 761.953 427.242 761.514 423.01 760.67C420.92 760.15 418.3 759.57 415.91 759.06L415.35 752.29L434.35 753.29L435.86 761.98Z" fill="black"/>
<path d="M499.25 658.82C497.59 663.49 448.01 662.67 448.01 662.67C448.01 662.67 445.35 732.67 441.35 741.34C437.35 750.01 437.01 761 437.01 761C437.01 761 428.35 761 423.01 759.67C417.67 758.34 409.01 756.67 409.01 756.67L411.35 637.92C411.35 637.92 412.35 636.67 414.68 629.16C416.18 624.33 424.98 618.07 431.07 614.16C434.47 612.02 437.01 610.62 437.01 610.62L466.59 611.82L484.85 612.56C484.85 612.56 500.92 654.15 499.25 658.82Z" fill="#5F5570"/>
<path opacity="0.1" d="M436.97 768.42L416.85 770.42L416.28 763.69C417.034 763.711 417.777 763.874 418.47 764.17C422.14 766.81 432.63 764.71 436.18 763.87L436.97 768.42Z" fill="black"/>
<path d="M440.77 787.87C440.794 788.819 440.587 789.76 440.167 790.612C439.747 791.463 439.127 792.201 438.36 792.76C437.094 793.753 435.598 794.41 434.01 794.67C433.552 794.709 433.107 794.846 432.705 795.07C432.304 795.294 431.954 795.601 431.68 795.97C429.457 799.105 426.412 801.565 422.88 803.08C415.95 805.8 406.2 808.47 401.63 804.3C401.253 803.965 400.917 803.585 400.63 803.17C394.26 794.05 404.76 784.29 404.76 784.29C404.76 784.29 409.5 773.17 411.63 768.05C411.86 767.386 412.227 766.778 412.709 766.265C413.19 765.752 413.773 765.347 414.421 765.075C415.07 764.803 415.768 764.671 416.471 764.688C417.174 764.704 417.865 764.868 418.5 765.17C422.5 768.05 434.63 765.29 437 764.68C439.37 764.07 440.13 773.79 440.13 773.79L440.77 787.72C440.765 787.77 440.765 787.82 440.77 787.87V787.87Z" fill="#544343"/>
<path opacity="0.1" d="M583.42 753.3L582.86 760.06C580.47 760.57 577.86 761.15 575.75 761.67C571.522 762.516 567.222 762.958 562.91 762.99L564.42 754.3L583.42 753.3Z" fill="black"/>
<path d="M589.77 757.67C589.77 757.67 581.11 759.34 575.77 760.67C570.43 762 561.77 762 561.77 762C561.77 762 561.44 751 557.44 742.34C553.44 733.68 550.77 663.67 550.77 663.67C550.77 663.67 503.99 663.4 502.32 658.73C500.65 654.06 522.71 613.73 522.71 613.73L536.16 613.03L561.77 611.67C561.77 611.67 566.77 614.39 572.01 618.06C577.25 621.73 582.94 626.39 584.11 630.16C586.44 637.67 587.44 638.92 587.44 638.92L589.77 757.67Z" fill="#5F5570"/>
<path opacity="0.1" d="M582.48 764.69L581.92 771.42L561.79 769.42L562.59 764.87C566.14 765.72 576.59 767.81 580.29 765.17C580.983 764.874 581.726 764.711 582.48 764.69Z" fill="black"/>
<path d="M580.29 766.17C580.926 765.867 581.618 765.701 582.322 765.684C583.026 765.667 583.725 765.798 584.375 766.07C585.024 766.342 585.609 766.748 586.091 767.261C586.572 767.775 586.94 768.384 587.17 769.05C589.29 774.17 594.04 785.3 594.04 785.3C594.04 785.3 604.54 795.05 598.17 804.17C594.17 809.89 583.41 807.02 575.93 804.08C572.395 802.571 569.348 800.11 567.13 796.97C566.854 796.6 566.503 796.293 566.1 796.069C565.696 795.845 565.25 795.709 564.79 795.67C563.166 795.387 561.639 794.699 560.35 793.67C559.593 793.11 558.986 792.371 558.583 791.52C558.18 790.668 557.994 789.731 558.04 788.79L558.67 774.79C558.67 774.79 559.42 765.06 561.79 765.67C564.16 766.28 576.29 769.05 580.29 766.17Z" fill="#544343"/>
<path d="M528.6 497.17L508.41 518.57L507.85 519.17L507.12 518.74C502.9 516.24 481.79 503.5 483.6 499.67C484.6 497.49 485.19 492.95 485.5 489.04C485.5 488.57 485.56 488.11 485.6 487.66C485.8 484.57 485.85 482.17 485.85 482.17C485.85 482.17 523.85 475.67 522.35 482.17C521.74 484.8 522.65 487.76 523.94 490.35C524.32 491.1 524.74 491.81 525.15 492.48C526.16 494.142 527.314 495.711 528.6 497.17V497.17Z" fill="#FFC4D0"/>
<path opacity="0.1" d="M523.94 490.35C518.271 494.528 511.3 496.551 504.275 496.058C497.25 495.566 490.63 492.588 485.6 487.66C485.8 484.57 485.85 482.17 485.85 482.17C485.85 482.17 523.85 475.67 522.35 482.17C521.77 484.82 522.65 487.76 523.94 490.35Z" fill="black"/>
<path d="M536.01 465.46C536.12 473.157 533.234 480.596 527.961 486.204C522.689 491.813 515.443 495.153 507.754 495.519C500.065 495.885 492.534 493.249 486.753 488.166C480.972 483.083 477.392 475.953 476.77 468.28C476.69 467.347 476.65 466.407 476.65 465.46C476.578 461.519 477.291 457.602 478.75 453.94C480.208 450.277 482.382 446.942 485.143 444.129C487.905 441.316 491.2 439.082 494.835 437.556C498.47 436.031 502.373 435.245 506.315 435.245C510.257 435.245 514.16 436.031 517.795 437.556C521.43 439.082 524.725 441.316 527.487 444.129C530.248 446.942 532.422 450.277 533.88 453.94C535.339 457.602 536.052 461.519 535.98 465.46H536.01Z" fill="#FFC4D0"/>
<path opacity="0.1" d="M535.64 460.72C534.868 461.349 533.972 461.808 533.011 462.069C532.049 462.329 531.044 462.384 530.06 462.23C525.48 461.23 523.91 454.23 519.23 453.75C514.55 453.27 511.44 459.75 506.7 459.62C504.7 459.57 502.9 458.26 501.06 457.35C497.84 455.76 492.54 454.79 489.06 455.99C483.83 457.78 482.06 462.62 478.72 466.47C478.149 467.125 477.524 467.731 476.85 468.28C476.77 467.347 476.73 466.407 476.73 465.46C476.662 457.956 479.44 450.705 484.504 445.168C489.568 439.63 496.543 436.217 504.023 435.616C511.503 435.015 518.933 437.271 524.816 441.929C530.699 446.587 534.599 453.302 535.73 460.72H535.64Z" fill="black"/>
<path d="M501.06 456.36C502.9 457.26 504.66 458.58 506.7 458.63C511.43 458.75 514.52 452.24 519.22 452.75C523.92 453.26 525.47 460.2 530.07 461.23C533.16 461.93 536.07 459.62 538.38 457.47C539.873 456.281 541.091 454.784 541.95 453.08C542.95 450.6 542.43 447.74 541.5 445.22C540.57 442.7 539.26 440.28 538.8 437.63C538.24 434.45 538.89 430.97 537.38 428.11C536.755 427.03 535.898 426.101 534.871 425.392C533.844 424.683 532.672 424.211 531.44 424.01C528.966 423.626 526.435 423.913 524.11 424.84C522.977 425.39 521.754 425.729 520.5 425.84C519.585 425.784 518.687 425.564 517.85 425.19C514.958 424.05 512.212 422.57 509.67 420.78C507.848 419.325 505.896 418.04 503.84 416.94C502.807 416.398 501.666 416.092 500.5 416.045C499.335 415.999 498.173 416.212 497.1 416.67C493.5 418.51 492.81 423.67 489.46 425.9C487.15 427.46 484.14 427.3 481.36 427.41C478.58 427.52 475.36 428.19 474.04 430.62C472.86 432.71 473.45 435.28 473.6 437.67C473.75 440.187 473.371 442.708 472.49 445.07C470.94 449.21 467.79 453.29 468.91 457.57C469.64 460.38 472.16 462.71 472.01 465.57C471.892 466.308 471.829 467.053 471.82 467.8C471.823 468.176 471.955 468.54 472.193 468.831C472.432 469.122 472.762 469.323 473.13 469.4C473.531 469.395 473.921 469.27 474.25 469.04C475.913 468.11 477.404 466.903 478.66 465.47C482.04 461.61 483.79 456.78 489.02 454.99C492.55 453.82 497.84 454.76 501.06 456.36Z" fill="#8E6F7F"/>
<path d="M535.47 630.92L530.07 632.39L517.6 635.82C514.714 637.97 511.466 639.586 508.01 640.59C500.38 642.52 495.45 638.32 491.35 631.82C489.7 629.22 490.53 627.14 492.69 625.51C497.89 621.58 510.75 620.3 514.69 620.82C517.278 621.031 519.878 620.626 522.28 619.64C523.985 619.02 525.628 618.243 527.19 617.32L535.47 630.92Z" fill="#FFC4D0"/>
<path opacity="0.1" d="M535.47 630.92L530.07 632.39C528.52 627.72 525.97 621.86 522.32 619.61C524.025 618.99 525.669 618.213 527.23 617.29L535.47 630.92Z" fill="black"/>
<path opacity="0.1" d="M571.99 618.06C569.75 619.87 567.85 621.52 567.85 621.52C567.85 621.52 541.85 629.67 536.85 639.92C536.85 639.92 532.85 619.92 524.35 619.67C524.35 619.67 533.5 616.08 536.14 613.01L561.77 611.67C561.77 611.67 566.77 614.39 571.99 618.06Z" fill="black"/>
<path d="M571.6 539.67L577.35 548.17L579.1 574.67C579.1 574.67 579.6 600.17 579.1 601.17L579.6 600.17C579.6 600.17 578.6 610.17 575.6 611.92C572.6 613.67 565.85 619.52 565.85 619.52C565.85 619.52 539.85 627.67 534.85 637.92C534.85 637.92 530.85 617.92 522.35 617.67C522.35 617.67 535.1 612.67 534.85 609.42C534.85 609.42 544.6 600.67 545.35 598.42C546.1 596.17 550.97 595.92 550.97 595.92C550.97 595.92 552.1 580.42 549.85 577.92C547.6 575.42 546.35 570.67 546.35 570.67L571.6 539.67Z" fill="#EAEAF2"/>
<path opacity="0.1" d="M508.01 640.56C500.38 642.49 495.45 638.29 491.35 631.79C489.7 629.19 490.53 627.11 492.69 625.48L493.47 625.79C493.47 625.79 507.22 631.75 508.01 640.56Z" fill="black"/>
<path d="M504.85 648.55C495.85 661.05 479.1 643.67 477.85 640.17C477.4 638.9 475.69 637.77 473.72 636.86C471.221 635.768 468.626 634.908 465.97 634.29L480.85 622.17L483.7 623.31L492.47 626.82C492.47 626.82 513.85 636.05 504.85 648.55Z" fill="#FFC4D0"/>
<path opacity="0.1" d="M483.7 623.31C475.5 627.21 473.75 632.82 473.7 636.86C471.201 635.768 468.606 634.908 465.95 634.29L480.83 622.17L483.7 623.31Z" fill="black"/>
<path opacity="0.1" d="M470.6 644.92C470.6 644.92 446.6 625.92 435.1 617.67C433.661 616.645 432.322 615.486 431.1 614.21C434.5 612.07 437.04 610.67 437.04 610.67L466.62 611.87C467.41 613.24 467.88 614.17 467.88 614.17L483.88 624.67C464.6 630.92 470.6 644.92 470.6 644.92Z" fill="black"/>
<path d="M438.6 545.17L433.85 547.92C433.85 547.92 428.1 566.17 429.6 578.17C429.6 578.17 425.1 595.42 426.85 598.17C426.85 598.17 424.6 607.42 436.1 615.67C447.6 623.92 471.6 642.92 471.6 642.92C471.6 642.92 465.6 628.92 484.85 622.67L468.85 612.17C468.85 612.17 463.48 601.51 458.35 599.17C458.35 599.17 454.35 595.17 456.85 592.42C459.35 589.67 461.35 586.67 461.35 583.92C461.35 581.17 462.35 568.17 462.35 568.17L465.35 554.17L438.6 545.17Z" fill="#EAEAF2"/>
<path opacity="0.1" d="M511.35 533.29H501.6C501.541 533.235 501.488 533.175 501.44 533.11L501.6 532.29L502.85 529.05L511.23 532.29L511.35 533.29Z" fill="black"/>
<path d="M514.5 516.36C514.5 516.36 506.04 523.42 501.6 516.36C501.6 516.36 497.6 528.3 501.6 532.3H513.6C513.6 532.3 519.89 521.42 514.5 516.36Z" fill="#7C21C4"/>
<path opacity="0.1" d="M525.94 493.17L538.54 496.42C538.54 496.42 526.6 527.42 523.97 527.42L508.85 520.17L525.94 493.17Z" fill="black"/>
<path opacity="0.1" d="M528.6 497.17L508.41 518.57L507.85 519.17L507.12 518.74L524.77 491.82L525.2 492.53C526.196 494.173 527.334 495.725 528.6 497.17V497.17Z" fill="black"/>
<path d="M524.94 492.17L537.54 495.42C537.54 495.42 525.6 526.42 522.97 526.42L507.85 519.17L524.94 492.17Z" fill="#EAEAF2"/>
<path opacity="0.1" d="M484.52 489.73L473.6 493.17C473.6 493.17 484.35 525.67 487.35 527.42L506.85 520.17L484.52 489.73Z" fill="black"/>
<path opacity="0.1" d="M508.41 518.57L507.85 519.17C507.85 519.17 481.6 503.92 483.6 499.67C484.6 497.49 485.19 492.95 485.5 489.04V488.43L508.41 518.57Z" fill="black"/>
<path d="M485.52 488.73L474.6 492.17C474.6 492.17 485.35 524.67 488.35 526.42L507.85 519.17L485.52 488.73Z" fill="#EAEAF2"/>
<path opacity="0.1" d="M459.51 541.82C459.51 541.82 466.09 542.99 465.97 549.82C465.85 556.65 468.68 540.99 468.68 540.99L459.51 541.82Z" fill="black"/>
<path opacity="0.1" d="M461.01 562.82C461.01 562.82 459.18 573.15 461.01 582.49C462.84 591.83 462.68 594.99 464.1 595.49C465.52 595.99 461.01 562.82 461.01 562.82Z" fill="black"/>
<path opacity="0.1" d="M545.01 561.82C544.485 561.887 543.981 562.068 543.534 562.35C543.086 562.632 542.706 563.009 542.42 563.455C542.134 563.9 541.949 564.403 541.878 564.927C541.807 565.451 541.852 565.985 542.01 566.49C542.85 570.67 545.01 561.82 545.01 561.82Z" fill="black"/>
<path opacity="0.1" d="M430.68 596.82C430.68 596.82 452.11 594.99 455.68 598.82C459.25 602.65 430.68 596.82 430.68 596.82Z" fill="black"/>
<path opacity="0.1" d="M555.01 598.27C555.01 598.27 570.68 596.34 574.35 599.01Z" fill="black"/>
<path opacity="0.1" d="M561.35 600.82C561.35 600.82 570.68 601.15 572.85 602.32Z" fill="black"/>
<path opacity="0.1" d="M563.18 604.17C563.18 604.17 571.68 603.84 572.85 605.17Z" fill="black"/>
<path opacity="0.1" d="M443.31 651.17C443.31 651.17 450.59 654.96 449.85 658.83C449.11 662.7 443.31 651.17 443.31 651.17Z" fill="black"/>
<path opacity="0.1" d="M437.01 653.01C437.01 653.01 448.12 667.42 446.61 672.17C445.1 676.92 437.01 653.01 437.01 653.01Z" fill="black"/>
<path opacity="0.1" d="M556.1 655.4C556.1 655.4 550.6 659.93 550.75 663.67Z" fill="black"/>
<path opacity="0.1" d="M429.1 744.67C429.1 744.67 429.1 748.92 436.97 755.17Z" fill="black"/>
<path opacity="0.1" d="M568.01 734.67C568.01 734.67 567.17 743.51 559.51 748.09Z" fill="black"/>
<g opacity="0.1">
<path d="M473.6 434.63C473.6 433.94 473.48 433.23 473.42 432.53C473.293 434.057 473.339 435.594 473.56 437.11C473.628 436.285 473.642 435.457 473.6 434.63Z" fill="black"/>
<path d="M472.01 462.57C472.16 459.67 469.64 457.34 468.91 454.57C468.873 454.436 468.846 454.299 468.83 454.16C468.602 455.288 468.629 456.454 468.91 457.57C469.5 459.86 471.28 461.82 471.84 464.04C471.89 463.52 471.99 463.05 472.01 462.57Z" fill="black"/>
<path d="M541.95 450.08C541.088 451.782 539.871 453.279 538.38 454.47C536.05 456.62 533.16 458.93 530.07 458.23C525.48 457.23 523.9 450.23 519.22 449.75C514.54 449.27 511.43 455.75 506.7 455.62C504.7 455.57 502.9 454.26 501.06 453.35C497.84 451.76 492.55 450.79 489.06 451.99C483.83 453.78 482.06 458.62 478.7 462.47C477.446 463.903 475.958 465.114 474.3 466.05C473.964 466.272 473.572 466.393 473.17 466.4C472.919 466.366 472.682 466.265 472.485 466.106C472.287 465.947 472.137 465.738 472.05 465.5V465.57C471.932 466.311 471.869 467.06 471.86 467.81C471.866 468.184 471.998 468.546 472.236 468.835C472.475 469.124 472.804 469.323 473.17 469.4C473.572 469.393 473.964 469.272 474.3 469.05C475.958 468.114 477.446 466.903 478.7 465.47C482.08 461.62 483.83 456.78 489.06 454.99C492.59 453.79 497.88 454.76 501.06 456.35C502.9 457.26 504.66 458.57 506.7 458.62C511.43 458.74 514.52 452.23 519.22 452.75C523.92 453.27 525.48 460.19 530.07 461.23C533.16 461.93 536.07 459.62 538.38 457.47C539.871 456.279 541.088 454.782 541.95 453.08C542.507 451.635 542.656 450.064 542.38 448.54C542.295 449.068 542.151 449.585 541.95 450.08V450.08Z" fill="black"/>
</g>
<path opacity="0.1" d="M404.77 784.3C404.77 784.3 412.94 781.78 416.33 786.56Z" fill="black"/>
<path opacity="0.1" d="M594.04 785.3C594.04 785.3 580.51 784.51 581.04 788.17Z" fill="black"/>
<path opacity="0.1" d="M864.17 777.89C879.043 777.89 891.1 775.853 891.1 773.34C891.1 770.827 879.043 768.79 864.17 768.79C849.297 768.79 837.24 770.827 837.24 773.34C837.24 775.853 849.297 777.89 864.17 777.89Z" fill="#38D39F"/>
<path opacity="0.1" d="M91.09 815.23C105.963 815.23 118.02 813.193 118.02 810.68C118.02 808.167 105.963 806.13 91.09 806.13C76.217 806.13 64.16 808.167 64.16 810.68C64.16 813.193 76.217 815.23 91.09 815.23Z" fill="#38D39F"/>
<path opacity="0.1" d="M195.26 839.64C210.133 839.64 222.19 837.603 222.19 835.09C222.19 832.577 210.133 830.54 195.26 830.54C180.387 830.54 168.33 832.577 168.33 835.09C168.33 837.603 180.387 839.64 195.26 839.64Z" fill="#38D39F"/>
<path d="M196.65 723.27C196.65 723.27 202.15 730.46 194.12 741.27C186.09 752.08 179.47 761.27 182.12 768.04C182.12 768.04 194.24 747.89 204.12 747.61C214 747.33 207.5 735.39 196.65 723.27Z" fill="#38D39F"/>
<path opacity="0.1" d="M196.65 723.27C197.13 723.966 197.507 724.727 197.77 725.53C207.39 736.83 212.52 747.38 203.27 747.64C194.66 747.89 184.33 763.29 181.85 767.18C181.93 767.48 182.03 767.77 182.14 768.07C182.14 768.07 194.26 747.92 204.14 747.64C214.02 747.36 207.5 735.39 196.65 723.27Z" fill="black"/>
<path d="M206.86 732.43C206.86 734.96 206.58 737.01 206.23 737.01C205.88 737.01 205.6 734.96 205.6 732.43C205.6 729.9 205.95 731.09 206.3 731.09C206.65 731.09 206.86 729.9 206.86 732.43Z" fill="#FFD037"/>
<path d="M210.37 735.45C208.15 736.66 206.21 737.39 206.05 737.08C205.89 736.77 207.54 735.54 209.76 734.33C211.98 733.12 211.11 734 211.27 734.33C211.43 734.66 212.59 734.24 210.37 735.45Z" fill="#FFD037"/>
<path d="M167.64 723.27C167.64 723.27 162.14 730.46 170.17 741.27C178.2 752.08 184.82 761.27 182.17 768.04C182.17 768.04 170.06 747.89 160.17 747.61C150.28 747.33 156.77 735.39 167.64 723.27Z" fill="#38D39F"/>
<path opacity="0.1" d="M167.64 723.27C167.159 723.966 166.778 724.727 166.51 725.53C156.89 736.83 151.77 747.38 161.01 747.64C169.63 747.89 179.96 763.29 182.44 767.18C182.358 767.482 182.258 767.78 182.14 768.07C182.14 768.07 170.03 747.92 160.14 747.64C150.25 747.36 156.77 735.39 167.64 723.27Z" fill="black"/>
<path d="M157.42 732.43C157.42 734.96 157.71 737.01 158.06 737.01C158.41 737.01 158.69 734.96 158.69 732.43C158.69 729.9 158.34 731.09 157.99 731.09C157.64 731.09 157.42 729.9 157.42 732.43Z" fill="#FFD037"/>
<path d="M153.92 735.45C156.14 736.66 158.07 737.39 158.24 737.08C158.41 736.77 156.74 735.54 154.52 734.33C152.3 733.12 153.18 734 153.01 734.33C152.84 734.66 151.7 734.24 153.92 735.45Z" fill="#FFD037"/>
<path d="M159.17 767.13C159.17 767.13 174.53 766.65 179.17 763.36C183.81 760.07 202.8 756.12 203.94 761.41C205.08 766.7 227.03 787.7 209.69 787.84C192.35 787.98 169.39 785.14 164.77 782.33C160.15 779.52 159.17 767.13 159.17 767.13Z" fill="#A8A8A8"/>
<path opacity="0.2" d="M209.99 786C192.65 786.14 169.69 783.3 165.07 780.49C161.56 778.34 160.15 770.65 159.68 767.11H159.17C159.17 767.11 160.17 779.49 164.76 782.31C169.35 785.13 192.34 787.96 209.68 787.82C214.68 787.82 216.41 786 216.32 783.36C215.62 784.98 213.71 785.97 209.99 786Z" fill="black"/>
</g>
<defs>
<linearGradient id="paint0_linear_2_81" x1="395.91" y1="610.78" x2="602.86" y2="610.78" gradientUnits="userSpaceOnUse">
<stop stop-color="#808080" stop-opacity="0.25"/>
<stop offset="0.54" stop-color="#808080" stop-opacity="0.12"/>
<stop offset="1" stop-color="#808080" stop-opacity="0.1"/>
</linearGradient>
<clipPath id="clip0_2_81">
<rect width="1009.54" height="839.64" fill="white"/>
</clipPath>
</defs>
</svg>
